<svg width="128" height="128" viewBox="0 0 128 128" fill="none" xmlns="http://www.w3.org/2000/svg">
    <rect width="128" height="128" rx="64" fill="#AB9FF2"/>
    <path d="M110.584 64.9142H99.1422C99.1422 46.0017 83.7815 30.641 64.8689 30.641C46.0817 30.641 30.8084 45.8013 30.6399 64.5551C30.4714 83.7815 46.0817 98.8218 65.308 98.8218H67.5501C84.5371 98.8218 106.731 86.5989 110.584 71.0533C111.088 69.0615 111.088 66.906 110.584 64.9142ZM77.4725 77.4725C75.3171 79.6279 72.3743 80.7892 69.2679 80.7892C66.1615 80.7892 63.2187 79.6279 61.0633 77.4725C60.7273 77.1365 60.5588 76.6974 60.5588 76.2582C60.5588 75.8191 60.7273 75.38 61.0633 75.044C61.7354 74.3719 62.7444 74.3719 63.4165 75.044C64.8952 76.5227 67.0506 77.4052 69.2679 77.4052C71.4853 77.4052 73.5732 76.5227 75.0519 75.044C75.724 74.3719 76.733 74.3719 77.4051 75.044C78.0772 75.7161 78.0772 76.8004 77.4725 77.4725ZM82.4033 65.6394C80.5789 65.6394 79.0158 64.0763 79.0158 62.2519C79.0158 60.4275 80.5789 58.8644 82.4033 58.8644C84.2277 58.8644 85.7908 60.4275 85.7908 62.2519C85.7908 64.0763 84.2277 65.6394 82.4033 65.6394ZM56.1325 65.6394C54.3081 65.6394 52.745 64.0763 52.745 62.2519C52.745 60.4275 54.3081 58.8644 56.1325 58.8644C57.9569 58.8644 59.52 60.4275 59.52 62.2519C59.52 64.0763 57.9569 65.6394 56.1325 65.6394Z" fill="white"/>
</svg> 