<svg width="48" height="48" viewBox="0 0 48 48" fill="none" xmlns="http://www.w3.org/2000/svg">
    <!-- Background Circle -->
    <circle cx="24" cy="24" r="24" fill="#0E1628"/>
    
    <!-- Outer Hexagon (Builder Block) -->
    <path d="M24 4L41.5 14V34L24 44L6.5 34V14L24 4Z" 
          fill="#1E3A8A" 
          stroke="#3B82F6" 
          stroke-width="1.5"/>
    
    <!-- Inner Connected Nodes (Meta Network) -->
    <g stroke="#60A5FA" stroke-width="2">
        <circle cx="24" cy="24" r="3" fill="#3B82F6"/>
        <circle cx="18" cy="20" r="2" fill="#3B82F6"/>
        <circle cx="30" cy="20" r="2" fill="#3B82F6"/>
        <circle cx="24" cy="16" r="2" fill="#3B82F6"/>
        <circle cx="18" cy="28" r="2" fill="#3B82F6"/>
        <circle cx="30" cy="28" r="2" fill="#3B82F6"/>
        <circle cx="24" cy="32" r="2" fill="#3B82F6"/>
        
        <!-- Connecting Lines -->
        <line x1="20" y1="20" x2="28" y2="20"/>
        <line x1="19" y1="22" x2="23" y2="24"/>
        <line x1="29" y1="22" x2="25" y2="24"/>
        <line x1="24" y1="18" x2="24" y2="21"/>
        <line x1="20" y1="28" x2="28" y2="28"/>
        <line x1="19" y1="26" x2="23" y2="24"/>
        <line x1="29" y1="26" x2="25" y2="24"/>
        <line x1="24" y1="30" x2="24" y2="27"/>
    </g>
    
    <!-- Hammer Icon (Builder Element) -->
    <path d="M28 16L32 12M32 12L36 16M32 12L32 20" 
          stroke="#60A5FA" 
          stroke-width="2" 
          stroke-linecap="round"/>
</svg> 