<svg width="128" height="128" viewBox="0 0 128 128" fill="none" xmlns="http://www.w3.org/2000/svg">
    <rect width="128" height="128" rx="64" fill="#FFE6D5"/>
    <path d="M108.5 27L71.8 54.6L78.6 39.1L108.5 27Z" fill="#E2761B" stroke="#E2761B" stroke-linecap="round" stroke-linejoin="round"/>
    <path d="M19.4 27L55.8 54.9L49.4 39.1L19.4 27Z" fill="#E4761B" stroke="#E4761B" stroke-linecap="round" stroke-linejoin="round"/>
    <path d="M95.8 82.6L86.2 97.7L106.7 103.3L112.5 83L95.8 82.6Z" fill="#E4761B" stroke="#E4761B" stroke-linecap="round" stroke-linejoin="round"/>
    <path d="M15.6 83L21.3 103.3L41.8 97.7L32.2 82.6L15.6 83Z" fill="#E4761B" stroke="#E4761B" stroke-linecap="round" stroke-linejoin="round"/>
    <path d="M41 63.9L35.3 73.3L55.6 74.4L55 52.6L41 63.9Z" fill="#E4761B" stroke="#E4761B" stroke-linecap="round" stroke-linejoin="round"/>
    <path d="M86.9 63.9L72.7 52.3L72.3 74.4L92.6 73.3L86.9 63.9Z" fill="#E4761B" stroke="#E4761B" stroke-linecap="round" stroke-linejoin="round"/>
    <path d="M41.8 97.7L54.4 91.6L43.6 83.2L41.8 97.7Z" fill="#E4761B" stroke="#E4761B" stroke-linecap="round" stroke-linejoin="round"/>
    <path d="M73.5 91.6L86.2 97.7L84.3 83.2L73.5 91.6Z" fill="#E4761B" stroke="#E4761B" stroke-linecap="round" stroke-linejoin="round"/>
</svg> 