<svg width="40" height="40" viewBox="0 0 128 128" fill="none" xmlns="http://www.w3.org/2000/svg">
  <rect width="128" height="128" rx="64" fill="#3B99FC"/>
  <path d="M38.0943 48.2936C54.3498 32.2686 80.6502 32.2686 96.9057 48.2936L98.9191 50.2772C99.9682 51.3097 99.9682 53.0011 98.9191 54.0336L91.4995 61.3506C90.975 61.8668 90.1305 61.8668 89.606 61.3506L86.8132 58.6012C75.4001 47.3726 59.5999 47.3726 48.1868 58.6012L45.2161 61.5215C44.6916 62.0377 43.8471 62.0377 43.3226 61.5215L35.903 54.2045C34.8539 53.172 34.8539 51.4806 35.903 50.4481L38.0943 48.2936ZM108.9 60.1472L115.464 66.6079C116.513 67.6404 116.513 69.3318 115.464 70.3643L88.1521 97.2686C87.103 98.3011 85.3813 98.3011 84.3322 97.2686C84.3322 97.2686 84.3322 97.2686 84.3322 97.2686L65.6678 78.8975C65.4056 78.6394 64.9833 78.6394 64.7211 78.8975L46.0567 97.2686C45.0076 98.3011 43.2859 98.3011 42.2368 97.2686C42.2368 97.2686 42.2368 97.2686 42.2368 97.2686L14.5359 70.3643C13.4868 69.3318 13.4868 67.6404 14.5359 66.6079L21.1 60.1472C22.1491 59.1147 23.8708 59.1147 24.9199 60.1472L43.5843 78.5183C43.8465 78.7764 44.2688 78.7764 44.531 78.5183L63.1954 60.1472C64.2445 59.1147 65.9662 59.1147 67.0153 60.1472C67.0153 60.1472 67.0153 60.1472 67.0153 60.1472L85.6797 78.5183C85.9419 78.7764 86.3642 78.7764 86.6264 78.5183L105.291 60.1472C106.34 59.1147 108.062 59.1147 108.9 60.1472Z" fill="white"/>
</svg> 