<svg xmlns="http://www.w3.org/2000/svg" viewBox="0 0 131.39 86.9">
  <path fill="#FF5F00" d="M48.37 15.14h34.66v56.61H48.37z"/>
  <path fill="#EB001B" d="M51.94 43.45c0-11.52 5.39-21.77 13.75-28.31A43.4 43.4 0 0 0 43.45 0C19.46 0 0 19.46 0 43.45s19.46 43.45 43.45 43.45a43.4 43.4 0 0 0 22.24-15.14c-8.36-6.54-13.75-16.79-13.75-28.31z"/>
  <path fill="#F79E1B" d="M131.39 43.45c0 23.99-19.46 43.45-43.45 43.45a43.4 43.4 0 0 1-22.24-15.14c8.36-6.54 13.75-16.79 13.75-28.31s-5.39-21.77-13.75-28.31A43.4 43.4 0 0 1 87.94 0c23.99 0 43.45 19.46 43.45 43.45z"/>
</svg> 