<svg width="64" height="64" viewBox="0 0 64 64" xmlns="http://www.w3.org/2000/svg">
  <defs>
    <linearGradient id="tools-grad" x1="0%" y1="0%" x2="100%" y2="100%">
      <stop offset="0%" style="stop-color:#9b59b6"/>
      <stop offset="100%" style="stop-color:#8e44ad"/>
    </linearGradient>
  </defs>
  <circle cx="32" cy="32" r="30" fill="white" stroke="url(#tools-grad)" stroke-width="2"/>
  <!-- Central gear -->
  <path d="M32,22 L34,22 L36,18 L28,18 L30,22 L32,22 Z
           M42,32 L42,34 L46,36 L46,28 L42,30 L42,32 Z
           M32,42 L34,42 L36,46 L28,46 L30,42 L32,42 Z
           M22,32 L22,34 L18,36 L18,28 L22,30 L22,32 Z" 
        fill="url(#tools-grad)"/>
  <circle cx="32" cy="32" r="6" fill="none" stroke="url(#tools-grad)" stroke-width="2"/>
  <!-- Community nodes -->
  <circle cx="32" cy="20" r="4" fill="white" stroke="url(#tools-grad)" stroke-width="2"/>
  <circle cx="44" cy="32" r="4" fill="white" stroke="url(#tools-grad)" stroke-width="2"/>
  <circle cx="32" cy="44" r="4" fill="white" stroke="url(#tools-grad)" stroke-width="2"/>
  <circle cx="20" cy="32" r="4" fill="white" stroke="url(#tools-grad)" stroke-width="2"/>
  <!-- Connection lines -->
  <line x1="32" y1="24" x2="32" y2="26" stroke="url(#tools-grad)" stroke-width="2"/>
  <line x1="40" y1="32" x2="38" y2="32" stroke="url(#tools-grad)" stroke-width="2"/>
  <line x1="32" y1="40" x2="32" y2="38" stroke="url(#tools-grad)" stroke-width="2"/>
  <line x1="24" y1="32" x2="26" y2="32" stroke="url(#tools-grad)" stroke-width="2"/>
</svg> 